<svg version="1.2" xmlns="http://www.w3.org/2000/svg" viewBox="0 0 68 68" width="16" height="16">
	<style>
		.s0 { fill: #222222 } 
	</style>
	<path id="path875" fill-rule="evenodd" class="s0" d="m33.87 67.73c-18.73 0-33.87-15.14-33.87-33.86 0-18.73 15.14-33.87 33.87-33.87 18.72 0 33.86 15.14 33.86 33.87 0 18.72-15.14 33.86-33.86 33.86zm3.69-7c4.81-0.63 9.66-2.74 13.47-5.86 1.39-1.14 3.48-3.34 4.55-4.79 3.6-4.87 5.34-10.11 5.34-16.11 0-4.57-0.78-8.03-2.71-12-1.43-2.94-3.09-5.21-5.58-7.61-5.15-4.97-11.51-7.54-18.68-7.54-4.43 0-7.92 0.77-11.73 2.57-8.19 3.89-13.9 11.66-15.21 20.73-0.26 1.82-0.26 5.47 0 7.45 0.61 4.64 2.45 9.02 5.41 12.89 1.06 1.38 3.48 3.82 4.78 4.8 3.96 3.02 8.49 4.91 13.24 5.52 1.52 0.19 5.45 0.17 7.12-0.05zm1.85-4.79c0.2-0.67 0.34-1.58 0.39-2.51 0.08-1.47 1.01-3.8 1.94-4.86 0.82-0.93 0.98-1.67 0.99-4.71 0.02-2.51 0.04-2.8 0.37-3.92 0.55-1.92 1.12-3.27 1.78-4.24 0.34-0.49 0.88-1.37 1.2-1.96 0.32-0.58 0.79-1.36 1.03-1.74 0.66-0.98 2.04-2.34 2.73-2.66 0.77-0.36 1.61-1.33 1.89-2.17 0.29-0.87 0.2-2.23-0.17-2.74-0.22-0.29-0.37-0.34-0.93-0.34-0.52 0-0.74-0.07-1-0.32-0.36-0.33-0.62-0.28-0.62 0.11 0 0.31-0.47 0.9-0.61 0.76-0.06-0.05 0-0.38 0.14-0.72 0.48-1.26 0.63-2.06 0.56-2.88-0.13-1.34-0.96-3.38-1.42-3.47-0.11-0.02-0.7 0.38-1.32 0.9q-4.81 4.05-7.36 5.59c-0.81 0.49-0.81 0.49-2.18 0.46-1.62-0.03-1.85 0.05-4.55 1.69-0.94 0.57-1.99 1.14-2.34 1.28-0.36 0.13-1.49 0.33-2.52 0.43-2.13 0.22-2.7 0.35-3.5 0.81-0.79 0.46-0.99 0.8-0.82 1.41 0.16 0.59 1.04 1.76 2.09 2.79l0.79 0.78-0.61 0.94c-0.34 0.52-0.85 1.48-1.13 2.13-0.56 1.3-0.71 1.54-1.83 2.92-0.96 1.19-2.03 2.9-3.03 4.86-0.86 1.68-1.27 2.11-2.84 3.01-0.88 0.5-0.85 0.52-1.84-0.98-1.82-2.75-3.08-6.03-3.59-9.34-0.25-1.66-0.24-5.09 0.01-6.82 0.4-2.64 1.4-5.53 2.77-7.96 1.86-3.3 5.27-6.71 8.55-8.56 3.62-2.04 7.27-3 11.43-2.99 3.94 0 6.93 0.71 10.43 2.46 2.3 1.16 4.09 2.49 6.06 4.51 3.15 3.24 5.15 7.02 6.08 11.5 0.35 1.69 0.49 5.59 0.26 7.43-0.48 3.82-2.1 7.78-4.48 10.95-0.88 1.16-2.98 3.28-4.19 4.22-2.28 1.78-4.64 3.01-7.54 3.92-1 0.32-1.16 0.32-1.07 0.03zm-4.45-28.18l1.22-1.57 1.96-0.27-1.22 1.56z"/>
</svg>