<svg version="1.2" xmlns="http://www.w3.org/2000/svg" viewBox="0 0 1024 1024" width="1024" height="1024">
	<title>New Project</title>
	<style>
		.s0 { fill: #3dca8d;stroke: #445d57;stroke-miterlimit:10;stroke-width: 15 } 
	</style>
	<path id="SM" class="s0" aria-label="SM"  d="m436 576.5q0 53.5-45 92-50.5 43-135 43-27.5 0-56.5-5-28.5-5.5-54.5-15.5-22.5-8-46.5-29-32-28.5-32-56 0-13.5 12-21.5 12-8.5 34.5-8.5 13.5 0 36.5 6 23 6 40.5 6h9.5q9.5 0 14.5-2.5 5-2.5 5-10.5 0-13-47-15.5-46.5-3-62-9-32-12-48.5-45-12-24-12-46 0-64.5 55-107.5 51.5-40 122.5-40 24.5 0 62 6 37.5 6 60.5 16.5 27 12.5 48 31.5 30 27.5 30 54 0 15.5-14 24.5-14 9-33.5 9-12 0-38-7.5-26-7.5-53-15.5-7.5 2.5-11 4-11 5.5-11 11 0 14 33 19.5 52 8.5 74 18 27 11.5 44.5 37.5 17.5 25.5 17.5 56zm537-59.5q0 15-1 43.5-1 28-1 32.5 0 45-30.5 82.5-30.5 37.5-65.5 37.5-20 0-38.5-8-18-8.5-26-19-13-18.5-23-37.5-12-23-16-23-3 0-17 24-14 24-39 24-20.5 0-32-14-11-14.5-21.5-29.5-14.5 28-28.5 56-16.5 24.5-57 24.5-35.5 0-62.5-28-24.5-25-36.5-64.5-12-39.5-15-63-3-23.5-3-54.5v-21.5q0-7.5-0.5-14.5 0-7.5 0-14.5 0-4 0-8 1-6.5 1-10 5.5-49 34.5-84.5 29-35.5 66.5-35.5 25.5 0 59.5 19.5 28.5 16 52 39 6 5.5 15 17.5 14 18 22 18 4.5 0 28-27.5 16.5-19 40-37 17-12.5 30.5-19 24-11.5 47-11.5 61.5 0 94 68.5 25 52.5 25 118.5 0 6.5 0 12.5-1 4.5-1 6.5z"/>
</svg>